<svg width="34" height="40" xmlns="http://www.w3.org/2000/svg" xmlns:xlink="http://www.w3.org/1999/xlink"><defs><linearGradient x1="90.259%" y1="0%" x2="90.259%" y2="125.612%" id="c"><stop stop-color="#56D5FF" offset="0%"/><stop stop-color="#2D59FF" offset="100%"/></linearGradient><path d="M14.571 30H1.714C.768 30 0 29.254 0 28.333V1.667C0 .747.768 0 1.714 0h20.572C23.232 0 24 .746 24 1.667v19.166h-7.714c-.947 0-1.715.747-1.715 1.667V30zm8.506-7.273c.51 0 .923.362.923.808L17.615 30a.994.994 0 0 1-.652-.237.76.76 0 0 1-.27-.571v-5.657a.76.76 0 0 1 .27-.571.994.994 0 0 1 .652-.237h5.462z" id="b"/><filter x="-39.6%" y="-18.3%" width="179.2%" height="163.3%" filterUnits="objectBoundingBox" id="a"><feOffset dy="4" in="SourceAlpha" result="shadowOffsetOuter1"/><feGaussianBlur stdDeviation="2.5" in="shadowOffsetOuter1" result="shadowBlurOuter1"/><feColorMatrix values="0 0 0 0 0.62745098 0 0 0 0 0.741176471 0 0 0 0 0.968627451 0 0 0 0.562811368 0" in="shadowBlurOuter1"/></filter></defs><g fill="none" fill-rule="evenodd"><g fill-rule="nonzero" transform="translate(5 1)"><use fill="#000" filter="url(#a)" xlink:href="#b"/><use fill="url(#c)" fill-rule="evenodd" xlink:href="#b"/></g><path d="M17.092 15.545c.46 0 .831-.407.831-.909s-.372-.909-.83-.909h-6.647c-.459 0-.83.407-.83.91 0 .501.371.908.83.908h6.646zm-6.646-3.635h6.646c.46 0 .831-.408.831-.91s-.372-.91-.83-.91h-6.647c-.459 0-.83.408-.83.91s.371.91.83.91zm11.84-5.19a.84.84 0 0 0-.61-.265h-11.2c-.475 0-.86.407-.86.909s.385.909.86.909h11.2a.84.84 0 0 0 .61-.267.935.935 0 0 0 .252-.642.935.935 0 0 0-.252-.643z" fill="#FFF"/></g></svg>